HIERARCHY
ROOT Hips
{
    OFFSET   0.000000   0.000000   0.000000
    CHANNELS 6 Xposition Yposition Zposition Zrotation Xrotation Yrotation
    JOINT Chest
    {
        OFFSET   0.000000   8.007230   0.000000
        CHANNELS 3 Zrotation Xrotation Yrotation
        JOINT Chest2
        {
            OFFSET   0.000000  22.077100   0.000000
            CHANNELS 3 Zrotation Xrotation Yrotation
            JOINT Neck
            {
                OFFSET   0.000000  23.254800   0.000000
                CHANNELS 3 Zrotation Xrotation Yrotation
                JOINT Head
                {
                    OFFSET   0.000010  14.370000   1.956600
                    CHANNELS 3 Zrotation Xrotation Yrotation
                    End Site
                    {
                        OFFSET   0.000000  19.566000   0.000000
                    }
                }
            }
            JOINT LeftCollar
            {
                OFFSET   3.911900  19.017000  -0.467062
                CHANNELS 3 Zrotation Xrotation Yrotation
                JOINT LeftShoulder
                {
                    OFFSET  10.383700   0.000000   0.000000
                    CHANNELS 3 Zrotation Xrotation Yrotation
                    JOINT LeftElbow
                    {
                        OFFSET  26.662100   0.001193   0.000835
                        CHANNELS 3 Zrotation Xrotation Yrotation
                        JOINT LeftWrist
                        {
                            OFFSET  28.869000  -0.000058  -0.000075
                            CHANNELS 3 Zrotation Xrotation Yrotation
                            JOINT LeftFinger0
                            {
                                OFFSET   2.044660  -2.323460   3.252850
                                CHANNELS 3 Zrotation Xrotation Yrotation
                                JOINT LeftFinger01
                                {
                                    OFFSET   3.088130   0.000000   0.000000
                                    CHANNELS 3 Zrotation Xrotation Yrotation
                                    JOINT LeftFinger02
                                    {
                                        OFFSET   2.639450   0.000000   0.000000
                                        CHANNELS 3 Zrotation Xrotation Yrotation
                                        End Site
                                        {
                                            OFFSET   2.582190   0.000000   0.000000
                                        }
                                    }
                                }
                            }
                            JOINT LeftFinger1
                            {
                                OFFSET   8.364480   0.000000   3.252850
                                CHANNELS 3 Zrotation Xrotation Yrotation
                                JOINT LeftFinger11
                                {
                                    OFFSET   4.646920   0.000000   0.000000
                                    CHANNELS 3 Zrotation Xrotation Yrotation
                                    JOINT LeftFinger12
                                    {
                                        OFFSET   2.323460   0.000000   0.000000
                                        CHANNELS 3 Zrotation Xrotation Yrotation
                                        End Site
                                        {
                                            OFFSET   2.273050   0.000000   0.000000
                                        }
                                    }
                                }
                            }
                            JOINT LeftFinger2
                            {
                                OFFSET   8.364490   0.000016   1.078090
                                CHANNELS 3 Zrotation Xrotation Yrotation
                                JOINT LeftFinger21
                                {
                                    OFFSET   5.111620   0.000000   0.000000
                                    CHANNELS 3 Zrotation Xrotation Yrotation
                                    JOINT LeftFinger22
                                    {
                                        OFFSET   2.788150   0.000012   0.000000
                                        CHANNELS 3 Zrotation Xrotation Yrotation
                                        End Site
                                        {
                                            OFFSET   2.727660   0.000000   0.000000
                                        }
                                    }
                                }
                            }
                            JOINT LeftFinger3
                            {
                                OFFSET   7.899780   0.000014  -1.078090
                                CHANNELS 3 Zrotation Xrotation Yrotation
                                JOINT LeftFinger31
                                {
                                    OFFSET   4.646930   0.000000   0.000000
                                    CHANNELS 3 Zrotation Xrotation Yrotation
                                    JOINT LeftFinger32
                                    {
                                        OFFSET   2.323470   0.000000   0.000000
                                        CHANNELS 3 Zrotation Xrotation Yrotation
                                        End Site
                                        {
                                            OFFSET   2.273050   0.000000   0.000000
                                        }
                                    }
                                }
                            }
                            JOINT LeftFinger4
                            {
                                OFFSET   7.435090   0.000000  -3.252850
                                CHANNELS 3 Zrotation Xrotation Yrotation
                                JOINT LeftFinger41
                                {
                                    OFFSET   3.717550   0.000000   0.000000
                                    CHANNELS 3 Zrotation Xrotation Yrotation
                                    JOINT LeftFinger42
                                    {
                                        OFFSET   1.858770   0.000000   0.000000
                                        CHANNELS 3 Zrotation Xrotation Yrotation
                                        End Site
                                        {
                                            OFFSET   1.818440   0.000000   0.000000
                                        }
                                    }
                                }
                            }
                        }
                    }
                }
            }
            JOINT RightCollar
            {
                OFFSET  -3.911900  19.017000  -0.467063
                CHANNELS 3 Zrotation Xrotation Yrotation
                JOINT RightShoulder
                {
                    OFFSET -10.383700   0.000023   0.000000
                    CHANNELS 3 Zrotation Xrotation Yrotation
                    JOINT RightElbow
                    {
                        OFFSET -26.662100   0.001246   0.001011
                        CHANNELS 3 Zrotation Xrotation Yrotation
                        JOINT RightWrist
                        {
                            OFFSET -28.869000  -0.000026  -0.000078
                            CHANNELS 3 Zrotation Xrotation Yrotation
                            JOINT RightFinger0
                            {
                                OFFSET  -2.044660  -2.323490   3.252850
                                CHANNELS 3 Zrotation Xrotation Yrotation
                                JOINT RightFinger01
                                {
                                    OFFSET  -3.088130   0.000000   0.000000
                                    CHANNELS 3 Zrotation Xrotation Yrotation
                                    JOINT RightFinger02
                                    {
                                        OFFSET  -2.639460   0.000000   0.000000
                                        CHANNELS 3 Zrotation Xrotation Yrotation
                                        End Site
                                        {
                                            OFFSET  -2.582190   0.000000   0.000000
                                        }
                                    }
                                }
                            }
                            JOINT RightFinger1
                            {
                                OFFSET  -8.364480   0.000000   3.252850
                                CHANNELS 3 Zrotation Xrotation Yrotation
                                JOINT RightFinger11
                                {
                                    OFFSET  -4.646920   0.000000   0.000000
                                    CHANNELS 3 Zrotation Xrotation Yrotation
                                    JOINT RightFinger12
                                    {
                                        OFFSET  -2.323470   0.000000   0.000000
                                        CHANNELS 3 Zrotation Xrotation Yrotation
                                        End Site
                                        {
                                            OFFSET  -2.273050   0.000000   0.000000
                                        }
                                    }
                                }
                            }
                            JOINT RightFinger2
                            {
                                OFFSET  -8.364480   0.000000   1.078090
                                CHANNELS 3 Zrotation Xrotation Yrotation
                                JOINT RightFinger21
                                {
                                    OFFSET  -5.111620   0.000000   0.000000
                                    CHANNELS 3 Zrotation Xrotation Yrotation
                                    JOINT RightFinger22
                                    {
                                        OFFSET  -2.788160   0.000000   0.000000
                                        CHANNELS 3 Zrotation Xrotation Yrotation
                                        End Site
                                        {
                                            OFFSET  -2.727660   0.000000   0.000000
                                        }
                                    }
                                }
                            }
                            JOINT RightFinger3
                            {
                                OFFSET  -7.899780   0.000000  -1.078090
                                CHANNELS 3 Zrotation Xrotation Yrotation
                                JOINT RightFinger31
                                {
                                    OFFSET  -4.646930   0.000000   0.000000
                                    CHANNELS 3 Zrotation Xrotation Yrotation
                                    JOINT RightFinger32
                                    {
                                        OFFSET  -2.323470   0.000000   0.000000
                                        CHANNELS 3 Zrotation Xrotation Yrotation
                                        End Site
                                        {
                                            OFFSET  -2.273050   0.000000   0.000000
                                        }
                                    }
                                }
                            }
                            JOINT RightFinger4
                            {
                                OFFSET  -7.435090   0.000000  -3.252850
                                CHANNELS 3 Zrotation Xrotation Yrotation
                                JOINT RightFinger41
                                {
                                    OFFSET  -3.717550   0.000000   0.000000
                                    CHANNELS 3 Zrotation Xrotation Yrotation
                                    JOINT RightFinger42
                                    {
                                        OFFSET  -1.858760   0.000000   0.000000
                                        CHANNELS 3 Zrotation Xrotation Yrotation
                                        End Site
                                        {
                                            OFFSET  -1.818440   0.000000   0.000000
                                        }
                                    }
                                }
                            }
                        }
                    }
                }
            }
        }
    }
    JOINT LeftHip
    {
        OFFSET   9.783010   0.000000   0.000000
        CHANNELS 3 Zrotation Xrotation Yrotation
        JOINT LeftKnee
        {
            OFFSET   0.000073 -41.789100   0.001749
            CHANNELS 3 Zrotation Xrotation Yrotation
            JOINT LeftAnkle
            {
                OFFSET   0.000111 -41.133200  -0.000179
                CHANNELS 3 Zrotation Xrotation Yrotation
                JOINT LeftToe
                {
                    OFFSET   0.000000  -6.358960  14.674500
                    CHANNELS 3 Zrotation Xrotation Yrotation
                    End Site
                    {
                        OFFSET   0.000000   0.000000   3.913200
                    }
                }
            }
        }
    }
    JOINT RightHip
    {
        OFFSET  -9.783010   0.000000   0.000000
        CHANNELS 3 Zrotation Xrotation Yrotation
        JOINT RightKnee
        {
            OFFSET   0.000424 -41.789200   0.005205
            CHANNELS 3 Zrotation Xrotation Yrotation
            JOINT RightAnkle
            {
                OFFSET   0.000000 -41.133200  -0.000155
                CHANNELS 3 Zrotation Xrotation Yrotation
                JOINT RightToe
                {
                    OFFSET   0.000000  -6.358960  14.674500
                    CHANNELS 3 Zrotation Xrotation Yrotation
                    End Site
                    {
                        OFFSET   0.000000   0.000000   3.913200
                    }
                }
            }
        }
    }
}
MOTION
Frames: 6
Frame Time:   0.016667
 -0.282217  89.538100  -1.142360  -3.903690 -12.118200  -4.045280   0.413797   7.312300   0.142554   0.819220  14.625500   0.234264   7.558590   0.280836  -0.037263  12.418600   0.539851  -5.703520  -0.560322   0.429873  -0.153585 -72.949300  24.459400  -6.012510  -2.962620  -5.391280 -17.418200  12.438100  -6.376360   2.842940  38.720800  30.756900 -55.663700 -31.866400  -0.005431   0.052284 -10.942700  -0.017504   0.045321 -23.616100   3.380290  -7.680170 -19.508500  -0.029670  -0.025924 -13.665600  -0.002672  -0.024810 -27.681600   0.825851  -1.573910 -30.179500  -0.068033  -0.068898 -20.099500  -0.016234  -0.061876 -27.372000   0.817346  -1.578340 -28.640700  -0.033455  -0.036751 -19.075300  -0.002528  -0.032356 -28.044100   0.835832  -1.568630 -42.083400   0.000232  -0.079322 -28.027600   0.037108  -0.037789   3.275370  -3.145230   4.636940  40.592500   6.267920  58.479100 -37.080900 -30.943100  70.456600   2.000880 -17.236900 -16.158900 -17.648900  44.566100  53.196600  81.246800   0.001341  -0.008805  47.450400   0.002957  -0.000769   4.067740   0.038173   0.544213   3.328200  -0.000169  -0.001588   2.329100   0.001047  -0.003461   3.605850  -0.005261  -0.070964   3.605800   0.002357  -0.005828   2.401470   0.001492  -0.002126  76.064600  -4.858400  -1.200820  76.115600  -0.003661  -0.001526  57.086700  -0.002542  -0.002581  88.532300  -9.995750  -0.254784 110.000000  -0.001055  -0.002860  79.999900  -0.002323   0.003647   3.962970  15.044400   3.542430   1.437900   0.103534   2.507830  -2.095860  -3.709700   1.560870  -0.000000   0.000000   0.000000   2.931760  13.410300  -1.948170  -0.528061   2.298650  -5.116240   0.658936  -4.114340   0.709949   0.000000   0.000000   0.000000
 -0.284212  89.538600  -1.149990  -3.913880 -12.126000  -4.088060   0.412782   7.300540   0.137056   0.817889  14.601900   0.223346   7.574780   0.334151  -0.044441  12.445400   0.642157  -5.729600  -0.548878   0.459235  -0.153012 -72.979300  24.436800  -5.994520  -2.958880  -5.381860 -17.410100  12.438600  -6.381830   2.837550  38.710900  30.745300 -55.654200 -31.871800   0.003904   0.024837 -10.943400  -0.002524   0.025132 -23.622300   3.386900  -7.692970 -19.513700  -0.035170  -0.030923 -13.665600  -0.002520  -0.029253 -27.681300   0.832456  -1.586370 -30.190300  -0.081332  -0.081701 -20.106600  -0.019118  -0.073425 -27.371300   0.823862  -1.590850 -28.645500  -0.035824  -0.037932 -19.079400  -0.004016  -0.033810 -28.047200   0.842561  -1.581030 -42.088200   0.001554  -0.091526 -28.030800   0.043244  -0.043132   3.236820  -3.134550   4.605630  40.393600   6.262820  58.704300 -37.116300 -30.647100  69.861900   2.059510 -17.434400 -16.209400 -17.586900  44.354200  53.012900  81.228800   0.001325  -0.008673  47.438500   0.002961  -0.000756   4.060170   0.027797   0.399299   3.321980  -0.000126  -0.001589   2.325400   0.001047  -0.003431   3.547870  -0.014360  -0.218537   3.547870   0.002296  -0.005870   2.362880   0.001450  -0.002136  75.950900  -4.857860  -1.211880  76.002400  -0.003648  -0.001551  57.001800  -0.002550  -0.002638  88.482900  -9.995700  -0.263489 110.000000  -0.001062  -0.002826  79.999900  -0.002315   0.003624   3.959810  15.087000   3.543080   1.443260   0.042423   2.523370  -2.094070  -3.677760   1.587790   0.000000   0.000000  -0.000000   2.934570  13.412800  -1.942990  -0.531548   2.293530  -5.108380   0.659696  -4.104350   0.739941   0.000000   0.000000   0.000000
 -0.286040  89.539100  -1.158650  -3.925190 -12.134500  -4.131440   0.412045   7.288220   0.131464   0.817128  14.577200   0.212196   7.588250   0.383748  -0.051133  12.466800   0.737361  -5.753430  -0.540130   0.490431  -0.143771 -73.001800  24.426400  -5.983060  -2.956960  -5.381360 -17.410500  12.433200  -6.376240   2.826530  38.708500  30.732000 -55.622700 -31.870800   0.003013   0.012797 -10.940300   0.001394   0.010289 -23.622100   3.394330  -7.708410 -19.514000  -0.026769  -0.025018 -13.665700  -0.002368  -0.023189 -27.683000   0.840554  -1.600290 -30.200100  -0.069312  -0.071334 -20.113200  -0.016115  -0.063372 -27.370600   0.831807  -1.604810 -28.644400  -0.029068  -0.031175 -19.078100  -0.005026  -0.027702 -28.054400   0.850917  -1.594810 -42.099300   0.002895  -0.072016 -28.038200   0.035079  -0.032788   3.207200  -3.122200   4.586760  40.191600   6.229260  58.937700 -37.120300 -30.311700  69.218700   2.136450 -17.656400 -16.265700 -17.511800  44.104900  52.876900  81.223700   0.001321  -0.008286  47.435100   0.002957  -0.000759   4.051560   0.019588   0.282076   3.314960  -0.000050  -0.001581   2.320550   0.001019  -0.003406   3.493430  -0.020740  -0.328892   3.493500   0.002237  -0.005905   2.326670   0.001400  -0.002139  75.935200  -4.857330  -1.218020  75.987000  -0.003648  -0.001567  56.990400  -0.002558  -0.002696  88.494200  -9.995650  -0.261624 110.000000  -0.001072  -0.002791  79.999900  -0.002303   0.003595   3.960740  15.090900   3.542850   1.445780   0.062125   2.537260  -2.093940  -3.688560   1.615940  -0.000000   0.000000   0.000000   2.937000  13.417300  -1.936040  -0.532231   2.288670  -5.103640   0.660555  -4.092970   0.770728  -0.000000   0.000000  -0.000000
 -0.288115  89.539600  -1.167260  -3.936540 -12.142700  -4.173070   0.411368   7.274790   0.126125   0.816452  14.550300   0.201558   7.599230   0.430245  -0.057411  12.484000   0.826548  -5.777910  -0.532498   0.524518  -0.128005 -73.023200  24.418700  -5.977100  -2.952290  -5.380810 -17.413000  12.427700  -6.370650   2.814470  38.709500  30.725200 -55.596900 -31.863600   0.002122   0.008656 -10.931800   0.001954   0.002453 -23.621000   3.399040  -7.720700 -19.514000  -0.018368  -0.019112 -13.665700  -0.002219  -0.017125 -27.686000   0.845430  -1.610920 -30.205800  -0.051056  -0.055814 -20.117000  -0.011843  -0.048257 -27.369700   0.836580  -1.615530 -28.639300  -0.019814  -0.024396 -19.073800  -0.005487  -0.020591 -28.059600   0.855973  -1.605340 -42.107300   0.004025  -0.052506 -28.043500   0.026914  -0.022444   3.182550  -3.102100   4.571880  39.978600   6.187880  59.174900 -37.093500 -29.951600  68.555700   2.247130 -17.885300 -16.308200 -17.440100  43.865700  52.748200  81.219000   0.001317  -0.008002  47.432000   0.002954  -0.000762   4.038870   0.013336   0.191101   3.304580   0.000000  -0.001573   2.313210   0.000991  -0.003382   3.436640  -0.025196  -0.413100   3.436760   0.002177  -0.005938   2.288880   0.001350  -0.002142  75.930300  -4.856830  -1.221250  75.982300  -0.003649  -0.001587  56.986900  -0.002567  -0.002749  88.514600  -9.995600  -0.258143 110.000000  -0.001080  -0.002756  79.999900  -0.002289   0.003566   3.962840  15.094700   3.542710   1.446890   0.081827   2.550900  -2.094130  -3.699350   1.642780   0.000000   0.000000   0.000000   2.939910  13.420300  -1.931520  -0.532764   2.286110  -5.097530   0.661139  -4.082010   0.800485   0.000000   0.000000   0.000000
 -0.290860  89.540100  -1.174420  -3.946720 -12.149200  -4.210650   0.410557   7.258770   0.120681   0.815510  14.518200   0.190758   7.607570   0.474572  -0.063381  12.497100   0.911328  -5.801110  -0.524317   0.565548  -0.107275 -73.052000  24.407000  -5.975150  -2.943990  -5.374180 -17.424100  12.430000  -6.375400   2.805350  38.725100  30.727100 -55.612600 -31.829700   0.012478   0.038579 -10.913800   0.001952   0.019184 -23.615400   3.399490  -7.724770 -19.509600  -0.020273  -0.025997 -13.665500  -0.002075  -0.021967 -27.688000   0.845148  -1.614190 -30.205500  -0.040815  -0.048201 -20.116900  -0.009771  -0.040418 -27.367700   0.836249  -1.618890 -28.624100  -0.018068  -0.024383 -19.063500  -0.005491  -0.019923 -28.059200   0.855731  -1.608620 -42.106700   0.004651  -0.059174 -28.043100   0.030134  -0.025651   3.160260  -3.065690   4.553990  39.789500   6.122430  59.409800 -37.031700 -29.587900  67.895800   2.442280 -18.103000 -16.288000 -17.388900  43.684900  52.584400  81.202100   0.001301  -0.008026  47.420800   0.002956  -0.000755   4.013000   0.009313   0.130138   3.283290   0.000000  -0.001578   2.298300   0.001028  -0.003357   3.359680  -0.028379  -0.485178   3.359790   0.002107  -0.005973   2.237600   0.001310  -0.002152  75.920400  -4.856370  -1.222600  75.972500  -0.003630  -0.001626  56.979500  -0.002583  -0.002785  88.534200  -9.995550  -0.254513 110.000000  -0.001084  -0.002724  79.999900  -0.002271   0.003545   3.963130  15.129600   3.543380   1.448120   0.041233   2.566170  -2.093340  -3.679140   1.666400   0.000000   0.000000  -0.000000   2.944470  13.419400  -1.937350  -0.533554   2.286900  -5.083810   0.660960  -4.073290   0.828117   0.000000   0.000000   0.000000
 -0.293909  89.540700  -1.181220  -3.956210 -12.155300  -4.242300   0.409693   7.242420   0.115950   0.814365  14.485500   0.181412   7.613510   0.515307  -0.068862  12.506600   0.989317  -5.824540  -0.516564   0.606888  -0.093930 -73.080500  24.396000  -5.974420  -2.932810  -5.363720 -17.441000  12.436500  -6.387330   2.798640  38.748300  30.737300 -55.635400 -31.801900   0.022834   0.068502 -10.901000   0.001949   0.035915 -23.610100   3.399610  -7.725350 -19.505200  -0.022178  -0.032882 -13.665300  -0.001928  -0.026809 -27.689600   0.844459  -1.614660 -30.205200  -0.031441  -0.040469 -20.116700  -0.008967  -0.032916 -27.365800   0.835481  -1.619370 -28.612900  -0.015841  -0.024369 -19.056200  -0.005491  -0.019255 -28.058900   0.855116  -1.609080 -42.106200   0.004863  -0.065841 -28.042700   0.033354  -0.028857   3.141820  -3.020310   4.538080  39.640400   6.041210  59.631300 -36.947100 -29.231600  67.261000   2.658880 -18.312300 -16.227200 -17.348800  43.537500  52.422900  81.182700   0.001284  -0.008049  47.407800   0.002959  -0.000749   3.995250   0.007791   0.105855   3.268660   0.000000  -0.001587   2.288070   0.001066  -0.003329   3.307850  -0.029650  -0.519619   3.307740   0.002039  -0.006009   2.202940   0.001269  -0.002159  75.915100  -4.855920  -1.222790  75.967200  -0.003603  -0.001666  56.975400  -0.002598  -0.002820  88.555800  -9.995510  -0.250558 110.000000  -0.001089  -0.002691  79.999900  -0.002253   0.003524   3.964750  15.158800   3.544440   1.449360   0.000640   2.579850  -2.092930  -3.658940   1.684550   0.000000   0.000000   0.000000   2.949860  13.418300  -1.944660  -0.534430   2.287700  -5.068730   0.660382  -4.065930   0.850049   0.000000   0.000000   0.000000
